<svg width="445" height="237" viewBox="0 0 445 237" fill="none" xmlns="http://www.w3.org/2000/svg">
<path fill-rule="evenodd" clip-rule="evenodd" d="M150.193 15.4787L150.758 10.0995L156.832 10.7379L157.122 7.97818L165.892 8.89993C174.316 3.16836 183.188 1.23779 188.924 4.07162C201.604 -0.306257 214.03 -0.305599 223.556 4.57678L226.891 3.93964C228.37 3.65706 229.619 5.04877 229.179 6.48886L228.731 7.95464C229.472 8.55996 230.186 9.20489 230.871 9.88979C233.063 12.0823 234.846 14.5721 236.231 17.2976C242.252 17.6193 248.017 19.9653 252.438 24.3855C254.338 26.2859 255.855 28.4351 256.993 30.7462L267.903 38.1982L285.113 40.3113C291.651 38.124 297.931 39.3336 299.619 43.3104C301.454 47.6317 297.171 53.5838 290.053 56.605C285.866 58.3824 281.63 58.7493 278.479 57.8701L271.357 58.4932L271.23 65.7668L276.024 67.9741L268.543 75.455L282.319 94.0072C282.376 94.0518 282.433 94.0969 282.49 94.1427L287.33 101.596L286.987 101.58C287.328 103.845 286.798 105.991 285.318 107.471C284.292 108.496 282.946 109.066 281.462 109.205L277.077 113.59L277.242 118.302C277.252 118.311 277.262 118.321 277.272 118.331L279.469 120.527L280.833 120.311C281.252 120.066 281.747 119.94 282.268 119.976L282.739 120.009L283.021 119.964L283.032 120.029L291.097 120.593C291.429 120.617 291.741 120.704 292.022 120.842L292.667 119.92L293.61 120.58C296.176 121.294 303.457 124.812 311.817 129.447C315.512 131.495 318.911 133.48 321.724 135.213L318.18 119.864L323.978 118.525L346.33 117.744L346.76 142.339C347.725 144.886 347.334 148.408 345.474 151.629C344.382 153.52 342.948 155.024 341.406 156.033C335.936 161.382 327.639 161.812 322.795 156.968C321.051 155.224 319.991 153.033 319.597 150.688L319.519 150.626L318.9 151.289L316.929 148.603L288.073 126.058C287.816 125.857 287.609 125.616 287.454 125.351L282.958 125.036L274.443 126.385L279.258 130.855C279.374 130.963 279.432 131.017 279.468 131.058C279.839 131.486 279.771 132.107 279.384 132.456C279.589 132.719 279.663 133.082 279.53 133.43C279.51 133.48 279.474 133.551 279.402 133.693L275.161 141.969C278.218 145.914 277.8 151.758 274.004 155.554C271.327 158.231 267.631 159.228 264.301 158.51L182.909 157.09L182.915 156.728C182.484 156.535 182.081 156.261 181.727 155.907L160.41 134.591C151.595 141.523 141.951 143.669 136.367 139.147C129.07 133.238 131.467 118.184 141.72 105.523C142.758 104.241 143.837 103.032 144.946 101.902C143.203 99.4664 142.449 96.6497 142.75 94.1162C131.676 80.6822 133.711 58.2452 146.707 38.099C147.011 31.4708 150.799 23.3503 157.4 16.2362L150.193 15.4787ZM24.7727 195.727C26.7121 197 27.8182 198.788 28.0909 201.091H33.5455C33.4697 198.742 32.7424 196.644 31.3636 194.795C30 192.947 28.1515 191.492 25.8182 190.432C23.4848 189.356 20.8182 188.818 17.8182 188.818C14.8485 188.818 12.1591 189.364 9.75 190.455C7.35606 191.53 5.44697 193.045 4.02273 195C2.61364 196.939 1.90909 199.212 1.90909 201.818C1.90909 204.955 2.9697 207.492 5.09091 209.432C7.21212 211.371 10.0909 212.864 13.7273 213.909L19.4545 215.545C21.0909 216 22.6136 216.53 24.0227 217.136C25.4318 217.742 26.5682 218.53 27.4318 219.5C28.2955 220.47 28.7273 221.727 28.7273 223.273C28.7273 224.97 28.2273 226.455 27.2273 227.727C26.2273 228.985 24.8712 229.97 23.1591 230.682C21.447 231.379 19.5152 231.727 17.3636 231.727C15.5152 231.727 13.7879 231.455 12.1818 230.909C10.5909 230.348 9.27273 229.5 8.22727 228.364C7.19697 227.212 6.60606 225.758 6.45455 224H0.636364C0.818182 226.545 1.59848 228.78 2.97727 230.705C4.37121 232.629 6.2803 234.129 8.70455 235.205C11.1439 236.28 14.0303 236.818 17.3636 236.818C20.9394 236.818 23.9773 236.22 26.4773 235.023C28.9924 233.826 30.9015 232.212 32.2045 230.182C33.5227 228.152 34.1818 225.879 34.1818 223.364C34.1818 221.182 33.7349 219.341 32.8409 217.841C31.947 216.341 30.8106 215.114 29.4318 214.159C28.0682 213.189 26.6364 212.424 25.1364 211.864C23.6515 211.303 22.303 210.864 21.0909 210.545L16.3636 209.273C15.5 209.045 14.553 208.75 13.5227 208.386C12.4924 208.008 11.5076 207.53 10.5682 206.955C9.62879 206.364 8.85606 205.629 8.25 204.75C7.65909 203.856 7.36364 202.788 7.36364 201.545C7.36364 200.061 7.78788 198.735 8.63636 197.568C9.5 196.402 10.697 195.485 12.2273 194.818C13.7727 194.152 15.5758 193.818 17.6364 193.818C20.4545 193.818 22.8333 194.455 24.7727 195.727ZM43.4489 189.455V236H49.0852V215.182H73.9034V236H79.5398V189.455H73.9034V210.182H49.0852V189.455H43.4489ZM90.8239 189.455V236H119.278V231H96.4602V215.182H117.46V210.182H96.4602V194.455H118.915V189.455H90.8239ZM129.074 189.455V236H134.71V217.818H144.892C145.295 217.818 145.69 217.811 146.078 217.796L155.892 236H162.438L151.923 216.807C152.582 216.583 153.2 216.321 153.778 216.023C156.097 214.811 157.816 213.144 158.938 211.023C160.059 208.902 160.619 206.47 160.619 203.727C160.619 200.985 160.059 198.538 158.938 196.386C157.816 194.235 156.089 192.545 153.756 191.318C151.422 190.076 148.438 189.455 144.801 189.455H129.074ZM134.71 212.727H144.71C147.195 212.727 149.195 212.364 150.71 211.636C152.241 210.909 153.347 209.879 154.028 208.545C154.725 207.197 155.074 205.591 155.074 203.727C155.074 201.864 154.725 200.235 154.028 198.841C153.331 197.447 152.218 196.371 150.688 195.614C149.157 194.841 147.134 194.455 144.619 194.455H134.71V212.727ZM175.648 189.455H170.011V236H197.284V231H175.648V189.455ZM240.812 225.455C242.585 221.879 243.472 217.636 243.472 212.727C243.472 207.818 242.585 203.576 240.812 200C239.04 196.424 236.608 193.667 233.517 191.727C230.426 189.788 226.896 188.818 222.926 188.818C218.956 188.818 215.426 189.788 212.335 191.727C209.244 193.667 206.812 196.424 205.04 200C203.267 203.576 202.381 207.818 202.381 212.727C202.381 217.636 203.267 221.879 205.04 225.455C206.812 229.03 209.244 231.788 212.335 233.727C215.426 235.667 218.956 236.636 222.926 236.636C226.896 236.636 230.426 235.667 233.517 233.727C236.608 231.788 239.04 229.03 240.812 225.455ZM235.994 202.523C237.343 205.295 238.017 208.697 238.017 212.727C238.017 216.758 237.343 220.159 235.994 222.932C234.661 225.705 232.85 227.803 230.562 229.227C228.29 230.652 225.744 231.364 222.926 231.364C220.108 231.364 217.555 230.652 215.267 229.227C212.994 227.803 211.184 225.705 209.835 222.932C208.502 220.159 207.835 216.758 207.835 212.727C207.835 208.697 208.502 205.295 209.835 202.523C211.184 199.75 212.994 197.652 215.267 196.227C217.555 194.803 220.108 194.091 222.926 194.091C225.744 194.091 228.29 194.803 230.562 196.227C232.85 197.652 234.661 199.75 235.994 202.523ZM284.767 204H290.403C289.979 201.606 289.206 199.477 288.085 197.614C286.964 195.735 285.57 194.144 283.903 192.841C282.237 191.523 280.366 190.523 278.29 189.841C276.229 189.159 274.025 188.818 271.676 188.818C267.706 188.818 264.176 189.788 261.085 191.727C257.994 193.667 255.562 196.424 253.79 200C252.017 203.576 251.131 207.818 251.131 212.727C251.131 217.636 252.017 221.879 253.79 225.455C255.562 229.03 257.994 231.788 261.085 233.727C264.176 235.667 267.706 236.636 271.676 236.636C274.025 236.636 276.229 236.295 278.29 235.614C280.366 234.932 282.237 233.939 283.903 232.636C285.57 231.318 286.964 229.72 288.085 227.841C289.206 225.962 289.979 223.833 290.403 221.455H284.767C284.434 223.061 283.85 224.485 283.017 225.727C282.199 226.955 281.199 227.992 280.017 228.841C278.85 229.674 277.555 230.303 276.131 230.727C274.706 231.152 273.222 231.364 271.676 231.364C268.858 231.364 266.305 230.652 264.017 229.227C261.744 227.803 259.934 225.705 258.585 222.932C257.252 220.159 256.585 216.758 256.585 212.727C256.585 208.697 257.252 205.295 258.585 202.523C259.934 199.75 261.744 197.652 264.017 196.227C266.305 194.803 268.858 194.091 271.676 194.091C273.222 194.091 274.706 194.303 276.131 194.727C277.555 195.152 278.85 195.788 280.017 196.636C281.199 197.47 282.199 198.5 283.017 199.727C283.85 200.955 284.434 202.379 284.767 204ZM305.148 189.455H299.511V236H305.148V220.909L310.966 214.364L327.148 236H333.966L314.42 210.455L333.966 189.455H326.602L305.693 212.545H305.148V189.455ZM364.898 189.455H359.261V236H386.534V231H364.898V189.455ZM395.261 236H400.898V189.455H395.261V236ZM428.472 189.455H412.199V236H429.017C432.684 236 435.661 235.455 437.949 234.364C440.237 233.273 441.911 231.795 442.972 229.932C444.032 228.068 444.562 225.97 444.562 223.636C444.562 221.182 444.078 219.106 443.108 217.409C442.138 215.712 440.934 214.409 439.494 213.5C438.055 212.591 436.623 212.091 435.199 212V211.545C436.532 211.182 437.767 210.621 438.903 209.864C440.055 209.106 440.979 208.076 441.676 206.773C442.388 205.47 442.744 203.818 442.744 201.818C442.744 199.545 442.229 197.477 441.199 195.614C440.169 193.735 438.6 192.242 436.494 191.136C434.388 190.015 431.714 189.455 428.472 189.455ZM429.017 231H417.835V214.818H429.29C431.32 214.818 433.078 215.227 434.562 216.045C436.047 216.848 437.191 217.924 437.994 219.273C438.797 220.606 439.199 222.061 439.199 223.636C439.199 225.682 438.419 227.424 436.858 228.864C435.312 230.288 432.699 231 429.017 231ZM428.29 209.909H417.835V194.455H428.472C431.562 194.455 433.82 195.174 435.244 196.614C436.669 198.038 437.381 199.773 437.381 201.818C437.381 203.455 436.972 204.879 436.153 206.091C435.35 207.303 434.259 208.242 432.881 208.909C431.517 209.576 429.987 209.909 428.29 209.909Z" fill="#B88E5E"/>
</svg>
